<?xml version="1.0" standalone="no"?>
<!DOCTYPE svg PUBLIC "-//W3C//DTD SVG 20010904//EN"
 "http://www.w3.org/TR/2001/REC-SVG-20010904/DTD/svg10.dtd">
<svg version="1.0" xmlns="http://www.w3.org/2000/svg"
 width="50.000000pt" height="50.000000pt" viewBox="0 0 50.000000 50.000000"
 preserveAspectRatio="xMidYMid meet">
<metadata>
Created by potrace 1.15, written by Peter Selinger 2001-2017
</metadata>
<g transform="translate(0.000000,50.000000) scale(0.100000,-0.100000)"
fill="#FFF" stroke="none">
<path d="M107 436 c-38 -14 -69 -36 -94 -66 -19 -23 -15 -30 15 -30 35 0 62
-27 62 -63 0 -17 7 -28 20 -32 25 -8 35 -46 21 -73 -9 -18 -8 -21 12 -24 16
-2 23 -11 25 -30 3 -27 4 -27 28 -12 20 13 27 14 39 4 13 -11 18 -9 32 10 13
19 22 21 56 17 22 -3 51 -1 64 4 26 10 62 -3 76 -28 13 -21 25 -7 32 37 9 54
-17 138 -54 174 l-29 28 -12 -36 c-20 -62 -81 -76 -72 -17 3 25 1 31 -14 31
-9 0 -26 7 -36 16 -16 16 -19 15 -38 -7 -17 -20 -21 -22 -30 -9 -14 22 -12 52
6 78 8 12 12 27 9 32 -9 14 -73 12 -118 -4z"/>
</g>
</svg>
