<?xml version="1.0" standalone="no"?>
<!DOCTYPE svg PUBLIC "-//W3C//DTD SVG 20010904//EN"
 "http://www.w3.org/TR/2001/REC-SVG-20010904/DTD/svg10.dtd">
<svg version="1.0" xmlns="http://www.w3.org/2000/svg"
 width="600.000000pt" height="600.000000pt" viewBox="0 0 600.000000 600.000000"
 preserveAspectRatio="xMidYMid meet">
<metadata>
Created by potrace 1.15, written by Peter Selinger 2001-2017
</metadata>
<g transform="translate(0.000000,600.000000) scale(0.100000,-0.100000)"
fill="#FFF" stroke="none">
<path d="M3773 4955 c-251 -68 -409 -306 -373 -564 27 -193 165 -356 352 -412
56 -17 89 -21 177 -17 103 3 112 5 193 45 425 211 361 828 -98 948 -72 19
-182 18 -251 0z"/>
<path d="M2780 3850 c-179 -22 -324 -66 -483 -147 -377 -192 -645 -543 -739
-971 -33 -146 -32 -435 0 -581 27 -118 67 -239 88 -260 11 -13 35 -10 171 18
762 159 1689 480 2308 799 l130 67 3 38 c7 79 -95 334 -190 477 -144 217 -431
426 -700 509 -164 50 -416 72 -588 51z m337 -248 c7 -5 -13 -41 -61 -112 l-72
-105 -52 -3 c-29 -2 -52 0 -52 3 0 3 34 55 76 115 73 106 77 110 112 110 20 0
42 -4 49 -8z m-495 -129 l-89 -118 -114 -34 c-63 -19 -133 -40 -157 -47 l-43
-13 20 27 c53 74 174 173 271 222 35 18 181 77 198 80 1 0 -37 -53 -86 -117z
m752 53 c152 -67 323 -217 411 -359 85 -138 136 -335 121 -461 l-8 -57 -34 72
c-132 275 -345 475 -616 580 -48 19 -88 38 -88 42 0 5 10 23 23 40 13 18 45
62 71 100 26 37 51 67 56 67 5 0 34 -11 64 -24z"/>
<path d="M5245 3464 c-164 -13 -375 -39 -550 -69 -224 -38 -483 -90 -491 -98
-3 -2 12 -35 32 -72 l37 -68 101 6 c380 24 440 21 532 -24 92 -44 77 -117 -47
-234 -212 -200 -594 -405 -1244 -664 -624 -250 -1394 -467 -1956 -552 -279
-42 -595 -27 -657 32 -89 82 46 234 402 453 28 18 28 18 21 89 -4 40 -10 77
-14 84 -13 24 -465 -203 -766 -384 -192 -116 -284 -183 -390 -285 -242 -232
-219 -369 70 -423 74 -14 128 -16 310 -12 121 3 279 13 350 21 818 101 1986
426 3040 846 687 274 1296 588 1601 826 272 212 342 376 196 461 -76 45 -178
64 -362 67 -91 2 -187 2 -215 0z"/>
<path d="M853 3333 c-61 -21 -136 -92 -164 -155 -47 -107 -25 -244 54 -326 56
-59 111 -85 192 -90 92 -6 157 15 219 69 134 118 134 330 0 448 -25 22 -66 47
-91 55 -57 20 -154 19 -210 -1z"/>
<path d="M4170 1944 c-500 -235 -1303 -517 -1887 -665 -51 -13 -93 -26 -93
-29 0 -12 147 -89 235 -123 154 -61 306 -90 490 -95 142 -3 174 -1 286 22 411
83 710 285 933 629 52 79 122 217 140 275 10 31 -13 28 -104 -14z"/>
</g>
</svg>
