<?xml version="1.0" standalone="no"?>
<!DOCTYPE svg PUBLIC "-//W3C//DTD SVG 20010904//EN"
 "http://www.w3.org/TR/2001/REC-SVG-20010904/DTD/svg10.dtd">
<svg version="1.0" xmlns="http://www.w3.org/2000/svg"
 width="200.000000pt" height="200.000000pt" viewBox="0 0 200.000000 200.000000"
 preserveAspectRatio="xMidYMid meet">
<metadata>
Created by potrace 1.15, written by Peter Selinger 2001-2017
</metadata>
<g transform="translate(-20.0000,210.000000) scale(0.120000,-0.120000)"
fill="#FFF" stroke="none">
<path d="M470 1380 l0 -34 -30 29 -30 29 0 -56 c0 -56 0 -56 -45 -85 -32 -20
-45 -35 -45 -51 0 -17 -13 -28 -55 -49 l-55 -27 28 -29 27 -29 98 6 99 6 117
-76 117 -77 72 -117 c40 -65 72 -126 72 -136 0 -10 -17 -35 -37 -56 l-37 -38
72 0 71 0 21 46 c11 26 20 54 20 64 0 9 -18 65 -40 124 -22 58 -40 108 -40
111 0 3 65 5 145 5 l144 0 51 -67 c46 -60 49 -68 37 -87 -8 -12 -28 -43 -45
-71 -23 -38 -46 -58 -94 -85 l-63 -35 95 -3 94 -3 93 93 94 94 -27 75 -26 75
38 77 39 77 78 -93 c77 -91 80 -93 185 -139 59 -26 109 -45 111 -43 2 2 -16
50 -40 105 l-43 101 -135 94 c-75 51 -156 114 -181 139 l-44 46 -390 0 -390 0
-63 62 -63 62 0 -34z"/>
<path d="M1426 959 l-28 -51 46 -47 46 -47 0 -74 c0 -72 -1 -75 -37 -112 l-37
-38 87 0 87 0 0 128 0 127 -61 83 c-33 45 -63 82 -67 82 -4 0 -20 -23 -36 -51z"/>
<path d="M554 803 c-60 -105 -89 -145 -121 -168 -23 -16 -42 -33 -42 -37 -1
-5 32 -8 72 -8 l74 0 86 120 87 119 -33 55 c-17 31 -35 56 -38 56 -4 0 -42
-62 -85 -137z"/>
</g>
</svg>
